<svg id="_2261585319760" xmlns="http://www.w3.org/2000/svg" width="74.222" height="96.481" viewBox="0 0 74.222 96.481">
  <path id="Caminho_3263" data-name="Caminho 3263" d="M233.47,71.413c1.352,0,1.964.475,4.529-.18,6.38-1.628,6.59-6.668,8.47-7.173A12.247,12.247,0,0,0,247.8,66.5l7.07,11.774a55.009,55.009,0,0,1,2.715,4.818c-1.5-.348-2.883-.8-4.415-1.237-6.494-1.85-5.623-2.811-7.467,6.121a17.37,17.37,0,0,0-.553,2.841c-.03-.036-.072-.138-.084-.108l-2.853-4.686c-2.277-3.785-6.656-11.492-8.746-14.615ZM234.815,0h1.538a10.971,10.971,0,0,1,3.911,1.123c3.07,1.49,3.851,3.676,5.214,5.527,2.331,3.172,4.776,2.661,7.088,3.652a10.573,10.573,0,0,1,4.6,3.508c4.325,5.3-.252,10.134,4.055,14.411a10.534,10.534,0,0,1,2.139,12.026,10.884,10.884,0,0,1-2.295,3.166c-4.049,5.184.108,6.554-2.961,12.675a10.634,10.634,0,0,1-2.151,2.937c-2.121,2.024-4.3,2.517-7.022,3.154L259.4,79.787c.595.985,3.286,5.136,3.286,5.947,0,2.853-4.229.877-7.2.042-1.057-.3-1.874-.541-2.932-.835a13.988,13.988,0,0,0-2.865-.715l-1.394,6.524c-.408,1.79-.8,5.725-2.187,5.725-1.646,0-1.58-.577-2.956-2.883L232.9,76.513c-.613-1.027-3.778-6.079-3.947-6.794-.757,0-1.28-.132-1.694-.132s-.937.132-1.694.132c-.168.721-3.382,5.851-4.019,6.914L211.309,93.712c-.949,1.592-1.31,2.769-2.511,2.769-1.316,0-1.532-.793-1.868-2.463l-2.09-9.786c-.847.018-7.341,1.982-8.734,2.385-1.207.354-4.271,1.6-4.271-.877,0-.8,2.775-5.106,3.358-6.067.859-1.43,10.2-16.748,10.4-17.487-.847-.408-2.319-.366-4.085-1.189a10.972,10.972,0,0,1-3.034-2.054c-4.872-4.776-2.511-9.413-3.28-12.171C194,42.5,190.14,41.8,190.14,35.622c0-3.436,1.556-5.509,3.334-7.593,2.409-2.817,1.748-4.205,1.748-8.614a11.856,11.856,0,0,1,1.249-4.211c2.649-5.2,7.665-5.214,9.81-6.205,3.124-1.448,3.034-3.724,5.352-5.953a10.228,10.228,0,0,1,6.95-3.034c5.424,0,4.974,1.886,8.668,1.886,2.229,0,4.5-1.634,7.563-1.886ZM209.351,90.822a16.189,16.189,0,0,0-.553-2.841l-1.213-5.569c-.673-2.805-2.066-1.73-6.109-.595-1.436.4-3.034.919-4.565,1.28.222-.943,11.041-18.893,11.492-19.217L210.366,67a10.044,10.044,0,0,0,2.529,2.559c2.127,1.472,3.328,1.652,5.767,1.976a16.809,16.809,0,0,0,2.367-.12c-2.343,3.5-7.575,12.639-10.164,16.97l-1.057,1.772c-.126.2-.108.18-.222.342-.264.384-.054.108-.24.324ZM198.424,20.731c0-4.908,2.475-7.179,6.8-8.086a9.448,9.448,0,0,0,3.34-1.37c4.74-3.052,3.382-6.332,8.338-7.863,5.5-1.7,7.106,3.652,14.363.793,2.667-1.051,4.427-1.91,7.677-.252,3.791,1.94,3.694,7.179,10.026,8.626a9.823,9.823,0,0,1,3.538,1.171c6.548,4.187,1.237,8.825,5.118,14.856.751,1.165,1.472,1.772,2.259,2.829a7.7,7.7,0,0,1,.012,8.554c-.745,1.111-1.58,1.718-2.343,2.931-3.634,5.767,1.358,10.741-5,14.778-2.139,1.358-3.851.649-6.674,2.559a9.373,9.373,0,0,0-2.439,2.084c-1.784,2.2-2.781,6.061-8.074,6.061-3.358,0-6.476-3.574-12.495-1a7.192,7.192,0,0,1-4.091,1c-3.658,0-5.406-2.517-6.674-4.632-3.893-6.53-9.173-3.484-12.393-8.146-3.016-4.379.667-7.707-2.9-12.921-1.9-2.781-3.472-2.9-3.472-7.455,0-3.22,2.445-4.872,3.5-6.488,2.036-3.112,1.586-5.22,1.586-8.02Z" transform="translate(-190.14)" fill="#c41a1c" fill-rule="evenodd"/>
  <path id="Caminho_3264" data-name="Caminho 3264" d="M218.108,45.948c0-5.2.583-8.188,3.58-12.435a17.416,17.416,0,0,1,2.211-2.5,18.976,18.976,0,0,1,20.713-3.845,17.012,17.012,0,0,1,5.575,3.658,17.872,17.872,0,0,1,3.971,5.262,19.261,19.261,0,0,1-1.544,19.878l-2.054,2.469a6.252,6.252,0,0,1-.643.487,7.131,7.131,0,0,0-.583.547,17.9,17.9,0,0,1-4.157,2.625,19.363,19.363,0,0,1-15.961.066,18.286,18.286,0,0,1-7.485-6.085,21.245,21.245,0,0,1-1.736-2.787,18.575,18.575,0,0,1-1.892-7.341Zm-3.2-1.886a22.168,22.168,0,0,0,6.644,16.532,22.229,22.229,0,0,0,33.9-28.444l-2.433-3.028c-3.436-3.586-9.581-6.542-14.754-6.542-5.893,0-9.311.817-14.021,4.067l-2.992,2.475c-3.628,3.815-6.356,9.437-6.356,14.94Z" transform="translate(-200.026 -9.016)" fill="#c41a1c" fill-rule="evenodd"/>
  <path id="Caminho_3265" data-name="Caminho 3265" d="M242.115,58.042c-1.5-1-2.517-3.322-4.157-2.847-3.022.871.859,4.169,1.093,4.4,3.694,3.694,2.6,3.532,9.8-3.676,1.021-1.021,6.079-5.623,6.079-6.734,0-1.063-.685-1.508-1.694-1.508-1.135,0-4.746,4.091-5.7,5.04l-5.418,5.322Z" transform="translate(-208.775 -19.038)" fill="#c41a1c" fill-rule="evenodd"/>
</svg>
