<svg xmlns="http://www.w3.org/2000/svg" width="258.142" height="57.321" viewBox="0 0 258.142 57.321">
  <g id="Grupo_6" data-name="Grupo 6" transform="translate(1881.32 -564.555)">
    <path id="Caminho_10" data-name="Caminho 10" d="M739.572,466.673v-2.154a2.047,2.047,0,0,1,2.091-2.329,2.091,2.091,0,0,1,2.165,2.329h-.748c-.037-1.1-.535-1.607-1.42-1.607-.833,0-1.344.51-1.344,1.607v2.154c0,1.1.51,1.607,1.344,1.607.884,0,1.394-.51,1.431-1.607h.748A2.1,2.1,0,0,1,741.662,469a2.047,2.047,0,0,1-2.092-2.329Z" transform="translate(-2505.265 150.759)" fill="#fff"/>
    <path id="Caminho_11" data-name="Caminho 11" d="M765.04,466.661v-2.105a2.187,2.187,0,1,1,4.358,0v2.105a2.187,2.187,0,1,1-4.358,0Zm3.61,0v-2.105c0-1.133-.547-1.644-1.431-1.644s-1.431.51-1.431,1.644v2.105c0,1.133.547,1.644,1.431,1.644S768.65,467.795,768.65,466.661Z" transform="translate(-2524.856 150.759)" fill="#fff"/>
    <path id="Caminho_12" data-name="Caminho 12" d="M796.693,464.692v4.185h-.734v-4.072c0-1.32-.348-1.918-1.207-1.918-.91,0-1.507.759-1.507,2.029v3.959h-.734v-6.537h.609l.125.81a1.845,1.845,0,0,1,1.694-.958c1.057,0,1.757.709,1.757,2.5Z" transform="translate(-2545.985 150.759)" fill="#fff"/>
    <path id="Caminho_13" data-name="Caminho 13" d="M817.682,466.926h.734a1.287,1.287,0,0,0,1.431,1.369c.81,0,1.283-.411,1.283-1.108,0-1.6-3.363-1.009-3.363-3.25a1.764,1.764,0,0,1,1.967-1.757,1.9,1.9,0,0,1,2.029,2.006h-.734a1.185,1.185,0,0,0-1.3-1.3c-.771,0-1.221.4-1.221,1.071,0,1.533,3.363.947,3.363,3.25a1.819,1.819,0,0,1-2.029,1.805,2.014,2.014,0,0,1-2.167-2.091Z" transform="translate(-2565.344 150.767)" fill="#fff"/>
    <path id="Caminho_14" data-name="Caminho 14" d="M844.065,463.72v.7h-.374a1.76,1.76,0,0,1-1.856-2V458.5h-.995v-.686h.995V456.31h.734v1.507h1.346v.686h-1.346v3.91c0,.859.349,1.307,1.122,1.307Z" transform="translate(-2583.158 155.282)" fill="#fff"/>
    <path id="Caminho_15" data-name="Caminho 15" d="M864.71,462.295v.8a2.3,2.3,0,0,0-.822-.136c-.935,0-1.544.748-1.544,1.992v3.959h-.734v-6.537h.609l.125.822v.011a1.862,1.862,0,0,1,1.706-.972,2.663,2.663,0,0,1,.66.062Z" transform="translate(-2599.134 150.728)" fill="#fff"/>
    <path id="Caminho_16" data-name="Caminho 16" d="M885.475,462.832v6.537h-.609l-.125-.81a1.848,1.848,0,0,1-1.694.958c-1.06,0-1.757-.709-1.757-2.5V462.83h.734V466.9c0,1.32.348,1.918,1.207,1.918.909,0,1.507-.759,1.507-2.029V462.83h.734Z" transform="translate(-2614.271 150.267)" fill="#fff"/>
    <path id="Caminho_17" data-name="Caminho 17" d="M909.337,463.72v.7h-.374a1.76,1.76,0,0,1-1.856-2V458.5h-1v-.686h1V456.31h.734v1.507h1.346v.686h-1.346v3.91c0,.859.349,1.307,1.12,1.307h.374Z" transform="translate(-2633.361 155.282)" fill="#fff"/>
    <path id="Caminho_18" data-name="Caminho 18" d="M926.29,466.661v-2.105a2.186,2.186,0,1,1,4.358,0v2.105a2.186,2.186,0,1,1-4.358,0Zm3.61,0v-2.105c0-1.133-.547-1.644-1.431-1.644s-1.431.51-1.431,1.644v2.105c0,1.133.547,1.644,1.431,1.644S929.9,467.795,929.9,466.661Z" transform="translate(-2648.883 150.759)" fill="#fff"/>
    <path id="Caminho_19" data-name="Caminho 19" d="M956.85,462.295v.8a2.3,2.3,0,0,0-.822-.136c-.935,0-1.544.748-1.544,1.992v3.959h-.734v-6.537h.609l.125.822v.011a1.861,1.861,0,0,1,1.706-.972,2.652,2.652,0,0,1,.66.062Z" transform="translate(-2670.004 150.728)" fill="#fff"/>
    <path id="Caminho_20" data-name="Caminho 20" d="M976.1,464.342v4.52h-.635l-.062-.623a1.768,1.768,0,0,1-1.508.771A1.911,1.911,0,0,1,971.83,467c0-1.258.81-1.955,2.241-1.955h1.295v-.7c0-.958-.448-1.471-1.295-1.471a1.191,1.191,0,0,0-1.307,1.145h-.734a1.9,1.9,0,0,1,2.068-1.856,1.937,1.937,0,0,1,2.006,2.168Zm-.734,2.553v-1.159h-1.32c-.958,0-1.468.448-1.468,1.283,0,.859.586,1.27,1.431,1.27A1.272,1.272,0,0,0,975.366,466.9Z" transform="translate(-2683.911 150.775)" fill="#fff"/>
    <path id="Caminho_21" data-name="Caminho 21" d="M1017.745,466.864a2.171,2.171,0,1,1-4.335-.2v-2.154a2.167,2.167,0,1,1,4.321,0v1.445h-3.573v.709c0,1.1.522,1.607,1.383,1.607.921,0,1.369-.448,1.47-1.406Zm-3.585-2.354v.759H1017v-.759c0-1.1-.535-1.607-1.431-1.607-.873,0-1.406.51-1.406,1.607Z" transform="translate(-2715.892 150.767)" fill="#fff"/>
    <path id="Caminho_22" data-name="Caminho 22" d="M1054.04,453.028a.6.6,0,1,1,.6.6A.563.563,0,0,1,1054.04,453.028Zm.238,1.805h.734v6.537h-.734Z" transform="translate(-2747.143 158.266)" fill="#fff"/>
    <path id="Caminho_23" data-name="Caminho 23" d="M1071.713,464.692v4.185h-.734v-4.072c0-1.32-.349-1.918-1.208-1.918-.909,0-1.507.759-1.507,2.029v3.959h-.734v-6.537h.61l.125.81a1.847,1.847,0,0,1,1.694-.958c1.057,0,1.757.709,1.757,2.5Z" transform="translate(-2757.519 150.759)" fill="#fff"/>
    <path id="Caminho_24" data-name="Caminho 24" d="M1093.9,466.673v-2.154a2.047,2.047,0,0,1,2.091-2.329,2.094,2.094,0,0,1,2.167,2.329h-.748c-.037-1.1-.536-1.607-1.42-1.607-.833,0-1.346.51-1.346,1.607v2.154c0,1.1.51,1.607,1.346,1.607.884,0,1.394-.51,1.431-1.607h.748a2.1,2.1,0,0,1-2.179,2.329A2.047,2.047,0,0,1,1093.9,466.673Z" transform="translate(-2777.802 150.759)" fill="#fff"/>
    <path id="Caminho_25" data-name="Caminho 25" d="M1119.37,466.661v-2.105a2.187,2.187,0,1,1,4.358,0v2.105a2.187,2.187,0,1,1-4.358,0Zm3.61,0v-2.105c0-1.133-.547-1.644-1.431-1.644s-1.431.51-1.431,1.644v2.105c0,1.133.547,1.644,1.431,1.644S1122.98,467.795,1122.98,466.661Z" transform="translate(-2797.392 150.759)" fill="#fff"/>
    <path id="Caminho_26" data-name="Caminho 26" d="M1149.93,462.295v.8a2.3,2.3,0,0,0-.822-.136c-.935,0-1.544.748-1.544,1.992v3.959h-.734v-6.537h.609l.125.822v.011a1.861,1.861,0,0,1,1.706-.972,2.665,2.665,0,0,1,.66.062Z" transform="translate(-2818.514 150.728)" fill="#fff"/>
    <path id="Caminho_27" data-name="Caminho 27" d="M1171.111,464.692v1.879c0,1.618-.771,2.454-2.029,2.454a1.836,1.836,0,0,1-1.519-.734v2.825h-.723v-8.779h.6l.1.612a1.863,1.863,0,0,1,1.544-.76C1170.266,462.19,1171.111,463.037,1171.111,464.692Zm-.748,0c0-1.284-.535-1.819-1.445-1.819-.748,0-1.357.573-1.357,1.794v1.9c0,1.046.535,1.768,1.357,1.768.958,0,1.445-.524,1.445-1.768v-1.879Z" transform="translate(-2833.905 150.759)" fill="#fff"/>
    <path id="Caminho_28" data-name="Caminho 28" d="M1193.22,466.661v-2.105a2.186,2.186,0,1,1,4.358,0v2.105a2.186,2.186,0,1,1-4.358,0Zm3.61,0v-2.105c0-1.133-.547-1.644-1.431-1.644s-1.431.51-1.431,1.644v2.105c0,1.133.547,1.644,1.431,1.644S1196.83,467.795,1196.83,466.661Z" transform="translate(-2854.195 150.759)" fill="#fff"/>
    <path id="Caminho_29" data-name="Caminho 29" d="M1223.78,462.295v.8a2.307,2.307,0,0,0-.822-.136c-.935,0-1.544.748-1.544,1.992v3.959h-.734v-6.537h.609l.125.822v.011a1.864,1.864,0,0,1,1.706-.972,2.669,2.669,0,0,1,.661.062Z" transform="translate(-2875.316 150.728)" fill="#fff"/>
    <path id="Caminho_30" data-name="Caminho 30" d="M1243.023,464.342v4.52h-.635l-.062-.623a1.768,1.768,0,0,1-1.507.771A1.913,1.913,0,0,1,1238.75,467c0-1.258.81-1.955,2.241-1.955h1.3v-.7c0-.958-.448-1.471-1.3-1.471a1.191,1.191,0,0,0-1.307,1.145h-.734a1.9,1.9,0,0,1,2.068-1.856,1.937,1.937,0,0,1,2.006,2.168Zm-.734,2.553v-1.159h-1.321c-.958,0-1.468.448-1.468,1.283,0,.859.586,1.27,1.431,1.27A1.273,1.273,0,0,0,1242.289,466.9Z" transform="translate(-2889.215 150.775)" fill="#fff"/>
    <path id="Caminho_31" data-name="Caminho 31" d="M1270.111,452.1v9.016h-.6l-.1-.612a1.863,1.863,0,0,1-1.544.759c-1.182,0-2.029-.847-2.029-2.5v-1.879c0-1.62.771-2.454,2.029-2.454a1.836,1.836,0,0,1,1.519.734V452.1Zm-.723,6.687v-1.9c0-1.046-.535-1.768-1.357-1.768-.958,0-1.445.524-1.445,1.768v1.879c0,1.283.536,1.819,1.445,1.819C1268.779,460.581,1269.388,460.009,1269.388,458.787Z" transform="translate(-2910.052 158.52)" fill="#fff"/>
    <path id="Caminho_32" data-name="Caminho 32" d="M1292.92,466.661v-2.105a2.187,2.187,0,1,1,4.358,0v2.105a2.187,2.187,0,1,1-4.358,0Zm3.611,0v-2.105c0-1.133-.547-1.644-1.431-1.644s-1.431.51-1.431,1.644v2.105c0,1.133.547,1.644,1.431,1.644S1296.531,467.795,1296.531,466.661Z" transform="translate(-2930.881 150.759)" fill="#fff"/>
    <path id="Caminho_33" data-name="Caminho 33" d="M1323.48,462.295v.8a2.3,2.3,0,0,0-.822-.136c-.935,0-1.544.748-1.544,1.992v3.959h-.734v-6.537h.609l.125.822v.011a1.864,1.864,0,0,1,1.706-.972,2.663,2.663,0,0,1,.66.062Z" transform="translate(-2952.002 150.728)" fill="#fff"/>
    <path id="Caminho_34" data-name="Caminho 34" d="M1342.713,464.342v4.52h-.635l-.062-.623a1.769,1.769,0,0,1-1.508.771A1.913,1.913,0,0,1,1338.44,467c0-1.258.81-1.955,2.242-1.955h1.295v-.7c0-.958-.448-1.471-1.295-1.471a1.191,1.191,0,0,0-1.307,1.145h-.734a1.9,1.9,0,0,1,2.068-1.856,1.938,1.938,0,0,1,2.006,2.168Zm-.734,2.553v-1.159h-1.32c-.958,0-1.468.448-1.468,1.283,0,.859.587,1.27,1.431,1.27A1.273,1.273,0,0,0,1341.979,466.9Z" transform="translate(-2965.893 150.775)" fill="#fff"/>
    <g id="Grupo_1" data-name="Grupo 1" transform="translate(-1881.32 564.555)">
      <path id="Caminho_35" data-name="Caminho 35" d="M335.782,385.6a.486.486,0,0,1-.344-.143L322.887,372.9a.486.486,0,1,1,.688-.688l12.551,12.551a.487.487,0,0,1-.344.831Z" transform="translate(-303.34 -343.56)" fill="#c41a1c"/>
      <path id="Caminho_36" data-name="Caminho 36" d="M291.711,338.224H239.167a.487.487,0,1,1,0-.974h52.544a.487.487,0,0,1,0,.974Z" transform="translate(-238.68 -316.773)" fill="#c41a1c"/>
      <path id="Caminho_37" data-name="Caminho 37" d="M589.319,283.4a.486.486,0,0,1-.487-.487V271.743l-22.209-22.209H555.457a.487.487,0,0,1,0-.974h11.366a.484.484,0,0,1,.344.143L589.66,271.2a.493.493,0,0,1,.143.344v11.367a.487.487,0,0,1-.487.487Z" transform="translate(-481.958 -248.557)" fill="#c41a1c"/>
      <path id="Caminho_38" data-name="Caminho 38" d="M265.462,303.811a.486.486,0,0,1-.344-.143l-26.235-26.235a.494.494,0,0,1-.143-.344v-7.578a.486.486,0,0,1,.831-.344l25.921,25.921,11.7-11.7H263.971a.487.487,0,1,1,0-.974h14.4a.486.486,0,0,1,.344.831L265.836,296.12a.488.488,0,0,1-.688,0l-25.434-25.434v6.2l25.752,25.752,3.474-3.421a.486.486,0,1,1,.683.693l-3.818,3.76a.492.492,0,0,1-.342.141Zm80.625-20.427H297.3a.487.487,0,1,1,0-.974h47.622l-32.689-32.691-28.162,28.162a.484.484,0,0,1-.344.143H258.62a.487.487,0,1,1,0-.974h24.907l28.365-28.363a.488.488,0,0,1,.688,0l33.857,33.869a.486.486,0,0,1-.346.826Zm-12.925-5.358h-30.5a.487.487,0,1,1,0-.974h29.326l-14.421-14.42a.486.486,0,1,1,.688-.688L333.506,277.2a.486.486,0,0,1-.344.831Z" transform="translate(-238.726 -248.545)" fill="#c41a1c"/>
      <path id="Caminho_39" data-name="Caminho 39" d="M563.248,338.224H548.807a.487.487,0,0,1,0-.974h14.441a.487.487,0,0,1,0,.974Z" transform="translate(-476.843 -316.773)" fill="#c41a1c"/>
      <path id="Caminho_40" data-name="Caminho 40" d="M408.791,378.4a.487.487,0,0,1-.344-.831l5.358-5.351a.486.486,0,1,1,.688.688l-5.358,5.351A.486.486,0,0,1,408.791,378.4Z" transform="translate(-369.149 -343.56)" fill="#c41a1c"/>
      <path id="Caminho_41" data-name="Caminho 41" d="M364.441,329.047H353.075a.486.486,0,0,1-.344-.831L399.45,281.5a.487.487,0,0,1,.688,0l5.683,5.683a.488.488,0,0,1,0,.688L364.785,328.9a.494.494,0,0,1-.344.143Zm-10.194-.974h9.991l40.549-40.549-5-5-45.545,45.544Z" transform="translate(-326.293 -273.781)" fill="#c41a1c"/>
    </g>
    <path id="Caminho_42" data-name="Caminho 42" d="M931.315,332.482a15.7,15.7,0,0,1-1.835-7.662V311.242h5.826V324.5q0,4.709,2.274,7.223a9.01,9.01,0,0,0,12.53-.042q2.275-2.555,2.274-7.184V311.24h5.826v13.578q0,6.624-3.991,10.655a13.96,13.96,0,0,1-10.376,4.03,14.913,14.913,0,0,1-7.424-1.835,12.965,12.965,0,0,1-5.108-5.187Z" transform="translate(-2651.336 266.864)" fill="#fff"/>
    <path id="Caminho_43" data-name="Caminho 43" d="M1092.676,311.25v22.437h18.677v5.187h-24.5V311.25Z" transform="translate(-2772.38 266.856)" fill="#fff"/>
    <path id="Caminho_44" data-name="Caminho 44" d="M1193.15,316.439v22.435H1187.4V316.439H1176.07V311.25h28.414v5.189Z" transform="translate(-2841.004 266.856)" fill="#fff"/>
    <path id="Caminho_45" data-name="Caminho 45" d="M1337.805,338.874h-5.745V311.25h5.745Z" transform="translate(-2960.986 266.856)" fill="#fff"/>
    <path id="Caminho_46" data-name="Caminho 46" d="M777.208,311.25h-5.771l-12.2,16.787L747.029,311.25H741.2v27.624h5.826V320.421l9.264,12.705h5.9l9.25-12.631v18.379h5.827V311.25Z" transform="translate(-2506.519 266.856)" fill="#fff"/>
  </g>
</svg>
