<svg xmlns="http://www.w3.org/2000/svg" width="611.812" height="313.523" viewBox="0 0 611.812 313.523">
  <g id="Grupo_2" data-name="Grupo 2" transform="translate(1881.32 -564.555)" opacity="0.1">
    <path id="Caminho_35" data-name="Caminho 35" d="M396.7,448.791a2.758,2.758,0,0,1-1.951-.812l-71.2-71.2a2.759,2.759,0,0,1,3.9-3.9l71.2,71.2a2.763,2.763,0,0,1-1.951,4.714Z" transform="translate(-2093.983 354.241)"/>
    <path id="Caminho_36" data-name="Caminho 36" d="M539.508,342.776H241.443a2.763,2.763,0,1,1,0-5.526H539.508a2.763,2.763,0,0,1,0,5.526Z" transform="translate(-2120 343.463)"/>
    <path id="Caminho_37" data-name="Caminho 37" d="M749.821,446.174a2.755,2.755,0,0,1-2.763-2.763v-63.34L621.073,254.086h-63.34a2.763,2.763,0,0,1,0-5.526h64.479a2.745,2.745,0,0,1,1.951.812l127.6,127.6a2.8,2.8,0,0,1,.812,1.951V443.4a2.763,2.763,0,0,1-2.763,2.763Z" transform="translate(-2022.113 316.015)"/>
    <path id="Caminho_38" data-name="Caminho 38" d="M390.326,562.055a2.758,2.758,0,0,1-1.951-.812L239.552,412.42a2.8,2.8,0,0,1-.812-1.951v-42.99a2.759,2.759,0,0,1,4.714-1.951L390.5,512.57l66.391-66.391h-75.02a2.763,2.763,0,1,1,0-5.526h81.686a2.759,2.759,0,0,1,1.951,4.714l-73.056,73.056a2.766,2.766,0,0,1-3.9,0L244.266,374.144V409.33L390.352,555.416l19.708-19.407a2.759,2.759,0,1,1,3.876,3.928l-21.659,21.332a2.793,2.793,0,0,1-1.938.8ZM847.689,446.179H570.943a2.763,2.763,0,1,1,0-5.526H841.09L655.654,255.2,495.9,414.961a2.745,2.745,0,0,1-1.951.812H351.513a2.763,2.763,0,0,1,0-5.526H492.806l160.909-160.9a2.766,2.766,0,0,1,3.9,0L849.68,441.478a2.756,2.756,0,0,1-1.964,4.688Zm-73.318-30.393H601.349a2.763,2.763,0,1,1,0-5.526H767.706l-81.8-81.8a2.759,2.759,0,0,1,3.9-3.9l86.518,86.518a2.759,2.759,0,0,1-1.951,4.714Z" transform="translate(-2119.981 316.01)"/>
    <path id="Caminho_39" data-name="Caminho 39" d="M633,342.776H551.083a2.763,2.763,0,0,1,0-5.526H633a2.763,2.763,0,0,1,0,5.526Z" transform="translate(-2024.171 343.463)"/>
    <path id="Caminho_40" data-name="Caminho 40" d="M411.061,407.948a2.763,2.763,0,0,1-1.951-4.714L439.5,372.88a2.759,2.759,0,1,1,3.9,3.9l-30.393,30.354a2.757,2.757,0,0,1-1.951.812Z" transform="translate(-2067.504 354.241)"/>
    <path id="Caminho_41" data-name="Caminho 41" d="M419.833,551.9H355.354a2.759,2.759,0,0,1-1.951-4.714L618.429,282.16a2.766,2.766,0,0,1,3.9,0l32.24,32.24a2.766,2.766,0,0,1,0,3.9L421.784,551.089a2.8,2.8,0,0,1-1.951.812Zm-57.827-5.526h56.674L648.7,316.351l-28.337-28.337L362.006,546.375Z" transform="translate(-2084.748 326.164)"/>
  </g>
</svg>
