<svg xmlns="http://www.w3.org/2000/svg" width="96.478" height="96.481" viewBox="0 0 96.478 96.481">
  <g id="Grupo_10" data-name="Grupo 10" transform="translate(4199.817 5688.4)">
    <path id="Caminho_3179" data-name="Caminho 3179" d="M11270.709,2954.93a29.238,29.238,0,1,0,29.24,29.238A29.271,29.271,0,0,0,11270.709,2954.93Zm-6.772,54.637v-12.655a1.457,1.457,0,0,0-.7-1.247,14.314,14.314,0,0,1-6.923-12.291,14.477,14.477,0,0,1,6.164-11.792v14.32a1.474,1.474,0,0,0,.71,1.252,14.58,14.58,0,0,0,15.048,0,1.46,1.46,0,0,0,.708-1.252v-14.32a14.472,14.472,0,0,1,6.167,11.792,14.313,14.313,0,0,1-6.924,12.291,1.46,1.46,0,0,0-.705,1.247v12.655a25.46,25.46,0,0,1-13.543,0Zm16.47-.957v-10.9a17.188,17.188,0,0,0,7.625-14.334,17.4,17.4,0,0,0-9.924-15.646,1.46,1.46,0,0,0-2.086,1.321v15.993a11.664,11.664,0,0,1-10.62,0v-15.993a1.462,1.462,0,0,0-2.089-1.321,17.4,17.4,0,0,0-9.924,15.646,17.188,17.188,0,0,0,7.622,14.334v10.9a26.315,26.315,0,1,1,19.4,0Z" transform="translate(-15422.291 -8624.322)" fill="#c51a1b"/>
    <path id="Caminho_3180" data-name="Caminho 3180" d="M11267.863,2929.536h-5.053a39.628,39.628,0,0,0-1.627-6.052l4.379-2.531a3.8,3.8,0,0,0,1.4-5.193l-3.508-6.075a3.795,3.795,0,0,0-5.189-1.393l-4.391,2.533a40.428,40.428,0,0,0-4.427-4.427l2.533-4.387a3.8,3.8,0,0,0-1.394-5.2l-6.075-3.508a3.805,3.805,0,0,0-5.192,1.39l-2.53,4.382a40.006,40.006,0,0,0-6.053-1.628V2892.4a3.8,3.8,0,0,0-3.8-3.8h-7.018a3.8,3.8,0,0,0-3.8,3.8v5.052a39.966,39.966,0,0,0-6.055,1.628l-2.531-4.379a3.8,3.8,0,0,0-5.192-1.393l-6.075,3.508a3.752,3.752,0,0,0-1.771,2.31,3.8,3.8,0,0,0,.381,2.886l2.533,4.385a40.794,40.794,0,0,0-4.427,4.427l-4.385-2.533a3.8,3.8,0,0,0-5.192,1.39l-3.511,6.078a3.806,3.806,0,0,0,1.393,5.19l4.382,2.53a39.672,39.672,0,0,0-1.628,6.052h-5.055a3.805,3.805,0,0,0-3.8,3.8v7.015a3.8,3.8,0,0,0,3.8,3.8h5.055a39.844,39.844,0,0,0,1.628,6.052l-4.382,2.531a3.81,3.81,0,0,0-1.393,5.193l3.511,6.075a3.8,3.8,0,0,0,5.192,1.4l4.385-2.539a40.256,40.256,0,0,0,4.427,4.427l-2.533,4.387a3.8,3.8,0,0,0,1.39,5.2l6.075,3.508a3.8,3.8,0,0,0,5.192-1.393l2.531-4.379a39.616,39.616,0,0,0,6.055,1.625v5.052a3.805,3.805,0,0,0,3.8,3.8h7.018a3.807,3.807,0,0,0,3.8-3.8v-5.052a40.372,40.372,0,0,0,6.053-1.625l2.53,4.379a3.8,3.8,0,0,0,5.19,1.39l6.074-3.507a3.81,3.81,0,0,0,1.394-5.2l-2.533-4.387a40,40,0,0,0,4.427-4.427l4.391,2.539a3.8,3.8,0,0,0,5.189-1.393l3.5-6.075a3.8,3.8,0,0,0-1.393-5.2l-4.379-2.53a39.844,39.844,0,0,0,1.628-6.052h5.052a3.8,3.8,0,0,0,3.8-3.8v-7.015a3.805,3.805,0,0,0-3.8-3.8Zm.877,10.818a.881.881,0,0,1-.877.877h-6.287a1.458,1.458,0,0,0-1.444,1.244,37.123,37.123,0,0,1-2.109,7.849,1.457,1.457,0,0,0,.628,1.8l5.453,3.152a.877.877,0,0,1,.406.53.867.867,0,0,1-.088.665l-3.508,6.078a.87.87,0,0,1-.536.41.859.859,0,0,1-.665-.089l-5.456-3.149a1.454,1.454,0,0,0-1.865.35,37.743,37.743,0,0,1-5.752,5.749,1.455,1.455,0,0,0-.349,1.868l3.151,5.456a.877.877,0,0,1-.321,1.2l-6.077,3.51a.881.881,0,0,1-1.2-.321l-3.146-5.45a1.46,1.46,0,0,0-1.8-.631,37.15,37.15,0,0,1-7.852,2.106,1.466,1.466,0,0,0-1.244,1.444v6.287a.876.876,0,0,1-.874.877h-7.018a.875.875,0,0,1-.877-.877V2975a1.466,1.466,0,0,0-1.243-1.444,37.072,37.072,0,0,1-7.85-2.106,1.428,1.428,0,0,0-.529-.1,1.475,1.475,0,0,0-1.27.728l-3.145,5.45a.88.88,0,0,1-.532.41.893.893,0,0,1-.668-.089l-6.081-3.508a.9.9,0,0,1-.406-.533.868.868,0,0,1,.088-.665l3.152-5.456a1.465,1.465,0,0,0-.353-1.874,37.607,37.607,0,0,1-5.748-5.749,1.466,1.466,0,0,0-1.872-.35l-5.456,3.149a.875.875,0,0,1-1.2-.321l-3.507-6.078a.877.877,0,0,1,.317-1.2l5.454-3.152a1.458,1.458,0,0,0,.63-1.8,36.954,36.954,0,0,1-2.111-7.849,1.463,1.463,0,0,0-1.444-1.244h-6.29a.876.876,0,0,1-.874-.877v-7.015a.875.875,0,0,1,.874-.877h6.29a1.464,1.464,0,0,0,1.444-1.241,36.9,36.9,0,0,1,2.111-7.849,1.463,1.463,0,0,0-.63-1.8l-5.454-3.146a.879.879,0,0,1-.317-1.2l3.507-6.078a.875.875,0,0,1,1.2-.321l5.456,3.152a1.467,1.467,0,0,0,1.872-.35,37.367,37.367,0,0,1,5.748-5.749,1.464,1.464,0,0,0,.353-1.871l-3.154-5.456a.882.882,0,0,1,.32-1.2l6.078-3.508a.877.877,0,0,1,1.2.321l3.144,5.45a1.462,1.462,0,0,0,1.8.631,37.085,37.085,0,0,1,7.849-2.109,1.465,1.465,0,0,0,1.243-1.444v-6.29a.878.878,0,0,1,.877-.877h7.019a.878.878,0,0,1,.874.877v6.29a1.465,1.465,0,0,0,1.243,1.444,37.073,37.073,0,0,1,7.853,2.109,1.464,1.464,0,0,0,1.8-.631l3.146-5.45a.874.874,0,0,1,1.2-.321l6.078,3.508a.874.874,0,0,1,.321,1.2l-3.152,5.456a1.463,1.463,0,0,0,.35,1.871,37.346,37.346,0,0,1,5.748,5.749,1.467,1.467,0,0,0,1.871.35l5.456-3.152a.879.879,0,0,1,1.2.321l3.508,6.078a.881.881,0,0,1-.321,1.2l-5.453,3.146a1.458,1.458,0,0,0-.628,1.8,37.072,37.072,0,0,1,2.109,7.849,1.459,1.459,0,0,0,1.444,1.241h6.287a.876.876,0,0,1,.877.877v7.015Z" transform="translate(-15375 -8577)" fill="#c51a1b"/>
  </g>
</svg>
