<svg xmlns="http://www.w3.org/2000/svg" width="244.054" height="54.192" viewBox="0 0 244.054 54.192">
  <g id="Grupo_7" data-name="Grupo 7" transform="translate(1881.32 -564.555)">
    <path id="Caminho_10" data-name="Caminho 10" d="M739.572,466.428v-2.036a1.935,1.935,0,0,1,1.977-2.2,1.977,1.977,0,0,1,2.047,2.2h-.707c-.035-1.037-.506-1.519-1.342-1.519-.788,0-1.27.482-1.27,1.519v2.036c0,1.037.482,1.519,1.27,1.519.836,0,1.318-.482,1.353-1.519h.707a1.989,1.989,0,0,1-2.06,2.2,1.935,1.935,0,0,1-1.977-2.2Z" transform="translate(-2511.575 148.118)" fill="#fff"/>
    <path id="Caminho_11" data-name="Caminho 11" d="M765.04,466.417v-1.99a2.067,2.067,0,1,1,4.12,0v1.99a2.067,2.067,0,1,1-4.12,0Zm3.413,0v-1.99c0-1.072-.517-1.554-1.353-1.554s-1.353.482-1.353,1.554v1.99c0,1.072.517,1.554,1.353,1.554S768.453,467.489,768.453,466.417Z" transform="translate(-2531.487 148.118)" fill="#fff"/>
    <path id="Caminho_12" data-name="Caminho 12" d="M796.465,464.556v3.957h-.694v-3.85c0-1.248-.33-1.814-1.141-1.814-.86,0-1.425.718-1.425,1.918v3.743h-.694V462.33h.576l.118.766a1.744,1.744,0,0,1,1.6-.906c1,0,1.661.67,1.661,2.366Z" transform="translate(-2552.962 148.118)" fill="#fff"/>
    <path id="Caminho_13" data-name="Caminho 13" d="M817.682,466.667h.694a1.217,1.217,0,0,0,1.353,1.294c.766,0,1.213-.388,1.213-1.048,0-1.508-3.18-.954-3.18-3.073a1.668,1.668,0,0,1,1.859-1.661,1.8,1.8,0,0,1,1.918,1.9h-.694a1.121,1.121,0,0,0-1.224-1.224c-.729,0-1.154.378-1.154,1.013,0,1.449,3.18.895,3.18,3.073a1.72,1.72,0,0,1-1.918,1.707,1.9,1.9,0,0,1-2.049-1.977Z" transform="translate(-2572.639 148.126)" fill="#fff"/>
    <path id="Caminho_14" data-name="Caminho 14" d="M843.889,463.316v.659h-.354a1.664,1.664,0,0,1-1.755-1.894v-3.7h-.941v-.648h.941V456.31h.694v1.425h1.272v.648h-1.272v3.7c0,.812.33,1.235,1.061,1.235Z" transform="translate(-2590.744 152.715)" fill="#fff"/>
    <path id="Caminho_15" data-name="Caminho 15" d="M864.541,462.291v.753a2.176,2.176,0,0,0-.777-.129c-.884,0-1.46.707-1.46,1.883v3.743h-.694v-6.181h.576l.118.777v.011a1.76,1.76,0,0,1,1.613-.919,2.518,2.518,0,0,1,.624.059Z" transform="translate(-2606.981 148.087)" fill="#fff"/>
    <path id="Caminho_16" data-name="Caminho 16" d="M885.247,462.832v6.181h-.576l-.118-.766a1.747,1.747,0,0,1-1.6.906c-1,0-1.661-.67-1.661-2.366V462.83h.694v3.85c0,1.248.33,1.814,1.141,1.814.86,0,1.425-.718,1.425-1.918V462.83h.694Z" transform="translate(-2622.366 147.618)" fill="#fff"/>
    <path id="Caminho_17" data-name="Caminho 17" d="M909.161,463.316v.659h-.354a1.664,1.664,0,0,1-1.755-1.894v-3.7h-.943v-.648h.943V456.31h.694v1.425h1.272v.648h-1.272v3.7c0,.812.33,1.235,1.058,1.235h.354Z" transform="translate(-2641.77 152.715)" fill="#fff"/>
    <path id="Caminho_18" data-name="Caminho 18" d="M926.29,466.417v-1.99a2.067,2.067,0,1,1,4.12,0v1.99a2.067,2.067,0,1,1-4.12,0Zm3.413,0v-1.99c0-1.072-.517-1.554-1.353-1.554s-1.353.482-1.353,1.554v1.99c0,1.072.517,1.554,1.353,1.554S929.7,467.489,929.7,466.417Z" transform="translate(-2657.546 148.118)" fill="#fff"/>
    <path id="Caminho_19" data-name="Caminho 19" d="M956.681,462.291v.753a2.176,2.176,0,0,0-.777-.129c-.884,0-1.46.707-1.46,1.883v3.743h-.694v-6.181h.576l.118.777v.011a1.76,1.76,0,0,1,1.613-.919,2.508,2.508,0,0,1,.624.059Z" transform="translate(-2679.013 148.087)" fill="#fff"/>
    <path id="Caminho_20" data-name="Caminho 20" d="M975.867,464.224V468.5h-.6l-.059-.589a1.672,1.672,0,0,1-1.425.729,1.807,1.807,0,0,1-1.953-1.9c0-1.189.766-1.849,2.119-1.849h1.224v-.659c0-.906-.423-1.39-1.224-1.39a1.126,1.126,0,0,0-1.235,1.082h-.694a1.8,1.8,0,0,1,1.955-1.755,1.831,1.831,0,0,1,1.9,2.049Zm-.694,2.414v-1.1h-1.248c-.906,0-1.388.423-1.388,1.213,0,.812.554,1.2,1.353,1.2A1.2,1.2,0,0,0,975.173,466.637Z" transform="translate(-2693.147 148.134)" fill="#fff"/>
    <path id="Caminho_21" data-name="Caminho 21" d="M1017.509,466.608a2.052,2.052,0,1,1-4.1-.19v-2.036a2.048,2.048,0,1,1,4.085,0v1.366h-3.378v.67c0,1.037.493,1.519,1.307,1.519.871,0,1.294-.423,1.39-1.329h.694Zm-3.389-2.226v.718h2.684v-.718c0-1.037-.506-1.519-1.353-1.519-.825,0-1.329.482-1.329,1.519Z" transform="translate(-2725.653 148.126)" fill="#fff"/>
    <path id="Caminho_22" data-name="Caminho 22" d="M1054.04,453a.565.565,0,1,1,.565.565A.533.533,0,0,1,1054.04,453Zm.225,1.707h.694v6.181h-.694Z" transform="translate(-2757.415 155.748)" fill="#fff"/>
    <path id="Caminho_23" data-name="Caminho 23" d="M1071.485,464.556v3.957h-.694v-3.85c0-1.248-.33-1.814-1.141-1.814-.86,0-1.425.718-1.425,1.918v3.743h-.694V462.33h.576l.118.766a1.747,1.747,0,0,1,1.6-.906c1,0,1.661.67,1.661,2.366Z" transform="translate(-2767.961 148.118)" fill="#fff"/>
    <path id="Caminho_24" data-name="Caminho 24" d="M1093.9,466.428v-2.036a1.935,1.935,0,0,1,1.977-2.2,1.98,1.98,0,0,1,2.049,2.2h-.707c-.035-1.037-.506-1.519-1.342-1.519-.788,0-1.272.482-1.272,1.519v2.036c0,1.037.482,1.519,1.272,1.519.836,0,1.318-.482,1.353-1.519h.707a1.987,1.987,0,0,1-2.06,2.2A1.935,1.935,0,0,1,1093.9,466.428Z" transform="translate(-2788.576 148.118)" fill="#fff"/>
    <path id="Caminho_25" data-name="Caminho 25" d="M1119.37,466.417v-1.99a2.067,2.067,0,1,1,4.12,0v1.99a2.067,2.067,0,1,1-4.12,0Zm3.413,0v-1.99c0-1.072-.517-1.554-1.353-1.554s-1.353.482-1.353,1.554v1.99c0,1.072.517,1.554,1.353,1.554S1122.783,467.489,1122.783,466.417Z" transform="translate(-2808.488 148.118)" fill="#fff"/>
    <path id="Caminho_26" data-name="Caminho 26" d="M1149.761,462.291v.753a2.177,2.177,0,0,0-.777-.129c-.884,0-1.46.707-1.46,1.883v3.743h-.694v-6.181h.576l.118.777v.011a1.76,1.76,0,0,1,1.613-.919,2.518,2.518,0,0,1,.624.059Z" transform="translate(-2829.955 148.087)" fill="#fff"/>
    <path id="Caminho_27" data-name="Caminho 27" d="M1170.877,464.556v1.776c0,1.53-.729,2.32-1.918,2.32a1.736,1.736,0,0,1-1.436-.694v2.671h-.683v-8.3h.565l.094.578a1.762,1.762,0,0,1,1.46-.718C1170.079,462.19,1170.877,462.991,1170.877,464.556Zm-.707,0c0-1.213-.506-1.72-1.366-1.72-.707,0-1.283.541-1.283,1.7v1.8c0,.989.506,1.672,1.283,1.672.906,0,1.366-.5,1.366-1.672v-1.776Z" transform="translate(-2845.598 148.118)" fill="#fff"/>
    <path id="Caminho_28" data-name="Caminho 28" d="M1193.22,466.417v-1.99a2.067,2.067,0,1,1,4.12,0v1.99a2.067,2.067,0,1,1-4.12,0Zm3.413,0v-1.99c0-1.072-.517-1.554-1.353-1.554s-1.353.482-1.353,1.554v1.99c0,1.072.517,1.554,1.353,1.554S1196.633,467.489,1196.633,466.417Z" transform="translate(-2866.22 148.118)" fill="#fff"/>
    <path id="Caminho_29" data-name="Caminho 29" d="M1223.611,462.291v.753a2.176,2.176,0,0,0-.777-.129c-.884,0-1.46.707-1.46,1.883v3.743h-.694v-6.181h.576l.118.777v.011a1.762,1.762,0,0,1,1.613-.919,2.519,2.519,0,0,1,.624.059Z" transform="translate(-2887.688 148.087)" fill="#fff"/>
    <path id="Caminho_30" data-name="Caminho 30" d="M1242.79,464.224V468.5h-.6l-.059-.589a1.672,1.672,0,0,1-1.425.729,1.808,1.808,0,0,1-1.956-1.9c0-1.189.766-1.849,2.119-1.849h1.224v-.659c0-.906-.423-1.39-1.224-1.39a1.126,1.126,0,0,0-1.235,1.082h-.694a1.8,1.8,0,0,1,1.955-1.755,1.831,1.831,0,0,1,1.9,2.049Zm-.694,2.414v-1.1h-1.248c-.906,0-1.388.423-1.388,1.213,0,.812.554,1.2,1.353,1.2A1.2,1.2,0,0,0,1242.1,466.637Z" transform="translate(-2901.814 148.134)" fill="#fff"/>
    <path id="Caminho_31" data-name="Caminho 31" d="M1269.877,452.1v8.524h-.565l-.094-.578a1.762,1.762,0,0,1-1.46.718c-1.117,0-1.918-.8-1.918-2.366v-1.776c0-1.532.729-2.32,1.918-2.32a1.735,1.735,0,0,1,1.436.694v-2.9Zm-.683,6.322v-1.8c0-.989-.506-1.672-1.283-1.672-.906,0-1.366.5-1.366,1.672V458.4c0,1.213.506,1.72,1.366,1.72C1268.618,460.118,1269.194,459.577,1269.194,458.422Z" transform="translate(-2922.992 156.006)" fill="#fff"/>
    <path id="Caminho_32" data-name="Caminho 32" d="M1292.92,466.417v-1.99a2.067,2.067,0,1,1,4.12,0v1.99a2.067,2.067,0,1,1-4.12,0Zm3.413,0v-1.99c0-1.072-.517-1.554-1.353-1.554s-1.353.482-1.353,1.554v1.99c0,1.072.517,1.554,1.353,1.554S1296.333,467.489,1296.333,466.417Z" transform="translate(-2944.162 148.118)" fill="#fff"/>
    <path id="Caminho_33" data-name="Caminho 33" d="M1323.311,462.291v.753a2.176,2.176,0,0,0-.777-.129c-.884,0-1.46.707-1.46,1.883v3.743h-.694v-6.181h.576l.118.777v.011a1.762,1.762,0,0,1,1.613-.919,2.518,2.518,0,0,1,.624.059Z" transform="translate(-2965.629 148.087)" fill="#fff"/>
    <path id="Caminho_34" data-name="Caminho 34" d="M1342.479,464.224V468.5h-.6l-.059-.589a1.672,1.672,0,0,1-1.425.729,1.808,1.808,0,0,1-1.955-1.9c0-1.189.766-1.849,2.119-1.849h1.224v-.659c0-.906-.423-1.39-1.224-1.39a1.126,1.126,0,0,0-1.235,1.082h-.694a1.8,1.8,0,0,1,1.955-1.755,1.832,1.832,0,0,1,1.9,2.049Zm-.694,2.414v-1.1h-1.248c-.906,0-1.388.423-1.388,1.213,0,.812.554,1.2,1.353,1.2A1.2,1.2,0,0,0,1341.786,466.637Z" transform="translate(-2979.748 148.134)" fill="#fff"/>
    <g id="Grupo_1" data-name="Grupo 1" transform="translate(-1881.32 564.555)">
      <path id="Caminho_35" data-name="Caminho 35" d="M335.07,384.861a.46.46,0,0,1-.325-.135L322.879,372.86a.46.46,0,0,1,.65-.65L335.4,384.075a.46.46,0,0,1-.325.786Z" transform="translate(-304.399 -345.116)" fill="#fff"/>
      <path id="Caminho_36" data-name="Caminho 36" d="M288.816,338.171H239.141a.46.46,0,1,1,0-.921h49.676a.46.46,0,1,1,0,.921Z" transform="translate(-238.68 -317.891)" fill="#fff"/>
      <path id="Caminho_37" data-name="Caminho 37" d="M587.444,281.495a.459.459,0,0,1-.461-.46V270.478l-21-21H555.431a.46.46,0,1,1,0-.921h10.746a.457.457,0,0,1,.325.135l21.265,21.265a.466.466,0,0,1,.135.325v10.746a.461.461,0,0,1-.461.461Z" transform="translate(-485.943 -248.557)" fill="#fff"/>
      <path id="Caminho_38" data-name="Caminho 38" d="M264,300.8a.46.46,0,0,1-.325-.135l-24.8-24.8a.467.467,0,0,1-.135-.325v-7.165a.46.46,0,0,1,.786-.325l24.506,24.506L275.1,281.483h-12.5a.46.46,0,1,1,0-.921h13.614a.46.46,0,0,1,.325.786l-12.176,12.176a.461.461,0,0,1-.65,0l-24.046-24.046v5.864l24.347,24.347,3.285-3.234a.46.46,0,0,1,.646.655l-3.61,3.555a.466.466,0,0,1-.323.133Zm76.225-19.312H294.105a.46.46,0,1,1,0-.921h45.023l-30.905-30.907L281.6,276.28a.457.457,0,0,1-.325.135H257.535a.46.46,0,1,1,0-.921h23.548L307.9,248.679a.461.461,0,0,1,.65,0L340.56,280.7a.459.459,0,0,1-.327.781Zm-12.219-5.065H299.173a.46.46,0,1,1,0-.921H326.9l-13.634-13.633a.46.46,0,0,1,.65-.65l14.419,14.419a.46.46,0,0,1-.325.786Z" transform="translate(-238.727 -248.545)" fill="#fff"/>
      <path id="Caminho_39" data-name="Caminho 39" d="M562.434,338.171H548.781a.46.46,0,1,1,0-.921h13.653a.46.46,0,0,1,0,.921Z" transform="translate(-480.744 -317.891)" fill="#fff"/>
      <path id="Caminho_40" data-name="Caminho 40" d="M408.764,378.054a.46.46,0,0,1-.325-.786l5.065-5.059a.46.46,0,0,1,.65.65l-5.065,5.059A.46.46,0,0,1,408.764,378.054Z" transform="translate(-371.286 -345.116)" fill="#fff"/>
      <path id="Caminho_41" data-name="Caminho 41" d="M363.794,326.445H353.048a.46.46,0,0,1-.325-.786l44.17-44.17a.461.461,0,0,1,.65,0l5.373,5.373a.461.461,0,0,1,0,.65l-38.8,38.8a.467.467,0,0,1-.325.135Zm-9.638-.921H363.6l38.336-38.336-4.723-4.723Z" transform="translate(-327.728 -274.195)" fill="#fff"/>
    </g>
    <path id="Caminho_42" data-name="Caminho 42" d="M931.215,331.323a14.84,14.84,0,0,1-1.735-7.243V311.242h5.508v12.536q0,4.452,2.15,6.829a8.519,8.519,0,0,0,11.846-.039,9.868,9.868,0,0,0,2.15-6.792V311.24h5.508v12.837a13.691,13.691,0,0,1-3.773,10.074,13.2,13.2,0,0,1-9.81,3.81,14.1,14.1,0,0,1-7.019-1.735,12.26,12.26,0,0,1-4.83-4.9Z" transform="translate(-2660.039 266.125)" fill="#fff"/>
    <path id="Caminho_43" data-name="Caminho 43" d="M1092.358,311.25v21.213h17.658v4.9H1086.85V311.25Z" transform="translate(-2783.065 266.117)" fill="#fff"/>
    <path id="Caminho_44" data-name="Caminho 44" d="M1192.218,316.156v21.211h-5.432V316.156H1176.07V311.25h26.863v4.906Z" transform="translate(-2852.813 266.117)" fill="#fff"/>
    <path id="Caminho_45" data-name="Caminho 45" d="M1337.492,337.367h-5.432V311.25h5.432Z" transform="translate(-2974.76 266.117)" fill="#fff"/>
    <path id="Caminho_46" data-name="Caminho 46" d="M775.243,311.25h-5.456l-11.536,15.87-11.541-15.87H741.2v26.117h5.508V319.921l8.758,12.012h5.578l8.745-11.942v17.376H775.3V311.25Z" transform="translate(-2512.85 266.117)" fill="#fff"/>
  </g>
</svg>
