<svg id="_2261585311888" xmlns="http://www.w3.org/2000/svg" width="96.469" height="90.826" viewBox="0 0 96.469 90.826">
  <path id="Caminho_3259" data-name="Caminho 3259" d="M81.948,34.746H92.688V92.967H81.948V34.746ZM-.02,95.082v-.451a1.7,1.7,0,0,1,1.694-1.658H19.383V59.622a1.7,1.7,0,0,1,1.694-1.694H38.035V44.55c0-.817-.631-.384-2.427-.961-.781-.252-1.532-.523-2.337-.865-4.031-1.724-8.716-7.3-8.8-10.987-1.682,0-3.466.378-5.274.378-5.593,0-11.654-1.748-14.778-6.518a16.644,16.644,0,0,1-1.406-2.739C1.59,19.1,1.668,16.653,1.668,12.706c0-1.634.282-4.92,1.069-5.713S6.618,5.924,8.258,5.924c4.65,0,8.3-.042,12.261,2.247,4.013,2.313,4.331,4.379,5.448,5.665a10.953,10.953,0,0,1,2.265-3.388c2.5-2.859,7.737-4.523,12.056-4.523,2.145,0,7.653-.192,8.819,1.165,1.051,1.225.979,6.44.979,8.44,0,7.058-3.3,13.474-10.3,15.522-5.286,1.55-7.106.871-11.378.871.294.619.475,1.153.811,1.826A12.428,12.428,0,0,0,40.468,40.4H52.525V24.954c0-2.481,2.127-2.259,3.766-2.259V15.157a2.03,2.03,0,0,1,2.259-1.886h6.217V8a1.979,1.979,0,0,1,3.454-1.382c.841.967.5,4.71.5,6.656h7.161a2.026,2.026,0,0,1,2.259,1.886V22.7c1.64,0,3.766-.222,3.766,2.259v5.839H94.16a2.026,2.026,0,0,1,2.259,1.886V95.046a1.7,1.7,0,0,1-1.694,1.694H1.644A1.7,1.7,0,0,1-.05,95.082ZM56.507,26.648H77.989V92.974H56.507V26.648Zm-14.7,17.523H52.549v48.8H41.808v-48.8ZM23.156,61.694H38.041V92.973H23.156V61.694ZM60.274,17.223H74.216V22.69H60.274V17.223ZM5.441,14.586c0-1.592.258-3.1.378-4.523,3.863-.9,10.939-.318,14.183,2.4,3.52,2.95,3.911,7.106,3.911,12.861-1.358-.907-4.776-5.467-6.217-5.467a2.179,2.179,0,0,0-2.072,1.886c0,1.8,4.133,4.415,5.467,6.4-6.151,0-12.423-.547-14.633-7.227A22.669,22.669,0,0,1,5.447,14.58ZM30.689,28.15c.907-1.358,5.467-4.776,5.467-6.217,0-.925-1.406-3.472-3.724-1.087l-4.565,4.475a29.607,29.607,0,0,1,.487-6.674A10.676,10.676,0,0,1,31,13.192c.024-.03.066-.072.09-.1l.384-.366c3.3-3.046,10.519-3.586,14.483-2.667.33,3.941.793,5.953-.523,10.4-2.1,7.1-8.23,7.683-14.742,7.683Z" transform="translate(0.05 -5.914)" fill="#c41a1c" fill-rule="evenodd"/>
  <path id="Caminho_3260" data-name="Caminho 3260" d="M101.63,59.667v43.9c0,3.034,3.959,2.913,3.959.378V58.91c0-2.235-3.959-3.112-3.959.751Z" transform="translate(-40.549 -26.311)" fill="#c41a1c" fill-rule="evenodd"/>
  <path id="Caminho_3261" data-name="Caminho 3261" d="M115.74,58.931V95.485a2.191,2.191,0,0,0,.451,1.243,2.029,2.029,0,0,0,3.508-1.622V59.3a1.99,1.99,0,1,0-3.959-.378Z" transform="translate(-46.183 -26.327)" fill="#c41a1c" fill-rule="evenodd"/>
  <path id="Caminho_3262" data-name="Caminho 3262" d="M115.74,133.9c0,2.649,3.959,2.373,3.959,0,0-2.355-3.959-2.643-3.959,0Z" transform="translate(-46.183 -56.269)" fill="#c41a1c" fill-rule="evenodd"/>
</svg>
