<svg id="Camada_x0020_1" xmlns="http://www.w3.org/2000/svg" width="55.057" height="61" viewBox="0 0 55.057 61">
  <path id="Caminho_3279" data-name="Caminho 3279" d="M20.019,27.76V18.947A1.916,1.916,0,0,1,22.165,16.8h10a1.916,1.916,0,0,1,2.145,2.145V27.76c0,2.116-1.508,1.986-2.029,2.261-1.551.87-.957,3.769-.957,6.436,0,1.189.174,7.668-.2,8.495a1.947,1.947,0,0,1-1.942,1.029H25.136a1.968,1.968,0,0,1-1.9-.957c-.7-1.3.217-13.061-.435-14.221-.551-.971-1.29-.913-1.754-1.1A1.934,1.934,0,0,1,20.019,27.76ZM26.644,0h1.247a6.72,6.72,0,0,1,2.493.71,7.206,7.206,0,0,1,2.348,10.945c-1,1.218-1.319,1.145-1.638,1.58,1.812,0,3.407-.087,4.8,1.16a5.355,5.355,0,0,1,2,3.841V28.369c0,1.986-1.595,4.2-2.986,4.523v7.031c.333.014,1.189.1,1.638.145.406.058,1.131.145,1.595.188a52.055,52.055,0,0,1,8.886,1.725c2.566.739,8.031,2.841,8.031,6.03,0,2.827-1.551,3.972-3.9,5.277-5.088,2.856-16.743,3.9-22.208,3.9a1.881,1.881,0,0,1-1.667-1.667c0-1.609,1.029-1.827,2.073-1.971a14.974,14.974,0,0,1,1.986-.043c2.073.014,6.958-.594,8.814-.841a40.819,40.819,0,0,0,6.422-1.435c.493-.159.986-.319,1.493-.536,1.247-.507,2.783-1.131,3.407-2.319-1.8-2.058-4.8-2.74-7.335-3.378a65.371,65.371,0,0,0-9.22-1.377v.841a5.36,5.36,0,0,1-3.015,4.61c-1.769.826-4.958.507-7.35.507a4.728,4.728,0,0,1-2.261-.594c-2-1.015-2.856-2.827-2.856-5.364-.71.174-1.508.174-2.334.29A55.118,55.118,0,0,0,10.553,45.1a20.216,20.216,0,0,0-5.639,2.1A4.918,4.918,0,0,0,3.6,48.388c.71,1.348,3.247,2.3,4.726,2.783.986.319,1.971.565,3,.812a24.353,24.353,0,0,0,3.117.565c-.435-.826-1.551-1.812-1.971-2.566a1.827,1.827,0,0,1,3-2.058L17.8,50.838c2.58,3.2,4.175,4.2,1.276,6.117l-4.1,2.812c-.406.275-.667.449-1.058.725A2.426,2.426,0,0,1,12.67,61h-.362a1.767,1.767,0,0,1-1.58-1.783c0-1.74,2.319-2.116,2.972-3.1a13.094,13.094,0,0,1-2.232-.391c-2.957-.58-7.176-1.8-9.466-3.639a4.352,4.352,0,0,1-2-4.073c0-1.667,1.9-3.276,2.986-3.928,3.131-1.87,6.77-2.595,10.394-3.305a47.779,47.779,0,0,1,6.045-.739V32.892c-1.348-.319-2.986-2.508-2.986-4.523V18.236a5.369,5.369,0,0,1,2.058-3.9c1.435-1.218,3.073-1.1,4.74-1.1a17.952,17.952,0,0,1-1.7-1.638c-.188-.232-.29-.391-.449-.623a6.939,6.939,0,0,1-1.073-4.407,7.83,7.83,0,0,1,.71-2.624A7.229,7.229,0,0,1,26.644.014ZM23.585,7.147c0-3.6,5.19-5.045,6.8-1.435a3.375,3.375,0,0,1-.739,3.914,2.458,2.458,0,0,1-1.044.739,3.375,3.375,0,0,1-3.914-.739,3.711,3.711,0,0,1-1.1-2.479Z" fill-rule="evenodd"/>
</svg>
